<svg width="10" height="8" viewBox="0 0 10 8" fill="none" xmlns="http://www.w3.org/2000/svg">
<path fill-rule="evenodd" clip-rule="evenodd" d="M8.75 7.68342H2.08333C1.85321 7.68342 1.66667 7.50101 1.66667 7.27599C1.66667 7.05098 1.85321 6.86856 2.08333 6.86856H8.75C8.98012 6.86856 9.16667 6.68615 9.16667 6.46113V2.72092L7.39583 3.81691C7.19313 4.00891 6.90481 4.08755 6.62974 4.02586C6.35466 3.96417 6.13021 3.77053 6.03333 3.51134L5 1.31936L3.95417 3.53578C3.84718 3.79098 3.61189 3.97319 3.33333 4.01655C3.06754 4.06518 2.79414 3.98467 2.6 3.80061L0.833333 2.72092V7.27599C0.833333 7.50101 0.646785 7.68342 0.416667 7.68342C0.186548 7.68342 9.16469e-09 7.50101 9.16469e-09 7.27599V2.72092C-4.49438e-05 2.42382 0.165285 2.15024 0.431461 2.00696C0.697636 1.86368 1.02247 1.87342 1.27917 2.03237L3.09167 3.15687C3.12592 3.17817 3.1568 3.20425 3.18333 3.23429L4.24583 0.985272C4.38223 0.697128 4.67737 0.512695 5.00208 0.512695C5.3268 0.512695 5.62194 0.697128 5.75833 0.985272L6.80417 3.20169C6.82917 3.17317 6.875 3.17725 6.90833 3.15687L8.72083 2.03644C8.97753 1.87749 9.30236 1.86775 9.56854 2.01103C9.83471 2.15431 10 2.42789 10 2.725V6.46113C10 7.13619 9.44036 7.68342 8.75 7.68342Z" fill="#262626"/>
</svg>
