<svg width="34" height="36" viewBox="0 0 34 36" fill="none" xmlns="http://www.w3.org/2000/svg">
<path d="M17 0C7.60887 0 0 8.05645 0 18C0 27.9435 7.60887 36 17 36C26.3911 36 34 27.9435 34 18C34 8.05645 26.3911 0 17 0ZM17 6.96774C20.3315 6.96774 23.0323 9.82742 23.0323 13.3548C23.0323 16.8823 20.3315 19.7419 17 19.7419C13.6685 19.7419 10.9677 16.8823 10.9677 13.3548C10.9677 9.82742 13.6685 6.96774 17 6.96774ZM17 31.9355C12.9762 31.9355 9.37056 30.0048 6.95766 26.9855C8.24637 24.4161 10.769 22.6452 13.7097 22.6452C13.8742 22.6452 14.0387 22.6742 14.1964 22.725C15.0875 23.0298 16.0198 23.2258 17 23.2258C17.9802 23.2258 18.9194 23.0298 19.8036 22.725C19.9613 22.6742 20.1258 22.6452 20.2903 22.6452C23.231 22.6452 25.7536 24.4161 27.0423 26.9855C24.6294 30.0048 21.0238 31.9355 17 31.9355Z" fill="#262626"/>
</svg>
