<svg width="500" height="auto" viewBox="0 0 13 14" fill="none" xmlns="http://www.w3.org/2000/svg">
<path d="M0.928571 12.6875C0.928571 13.0356 1.07532 13.3694 1.33653 13.6156C1.59774 13.8617 1.95202 14 2.32143 14H10.6786C11.048 14 11.4023 13.8617 11.6635 13.6156C11.9247 13.3694 12.0714 13.0356 12.0714 12.6875V3.5H0.928571V12.6875ZM3.57819 7.9625L6.17181 5.38508C6.21367 5.34245 6.26444 5.30844 6.32091 5.28518C6.37739 5.26192 6.43836 5.24991 6.5 5.24991C6.56164 5.24991 6.62261 5.26192 6.67909 5.28518C6.73556 5.30844 6.78633 5.34245 6.82819 5.38508L9.42181 7.9625C9.71431 8.25289 9.50712 8.75 9.09333 8.75H7.42857V11.8125C7.42857 11.9285 7.37966 12.0398 7.29258 12.1219C7.20551 12.2039 7.08742 12.25 6.96429 12.25H6.03571C5.91258 12.25 5.79449 12.2039 5.70741 12.1219C5.62034 12.0398 5.57143 11.9285 5.57143 11.8125V8.75H3.90667C3.49288 8.75 3.28569 8.25289 3.57819 7.9625ZM12.5357 0.875004H9.05357L8.7808 0.363677C8.72302 0.25436 8.63402 0.162405 8.5238 0.0981575C8.41358 0.0339095 8.28652 -8.27959e-05 8.15692 4.7941e-06H4.84018C4.71087 -0.000463619 4.58403 0.0334019 4.47421 0.0977214C4.36438 0.162041 4.276 0.254213 4.2192 0.363677L3.94643 0.875004H0.464286C0.341149 0.875004 0.223057 0.921098 0.135986 1.00315C0.0489157 1.08519 0 1.19647 0 1.3125L0 2.1875C0 2.30354 0.0489157 2.41482 0.135986 2.49686C0.223057 2.57891 0.341149 2.625 0.464286 2.625H12.5357C12.6588 2.625 12.7769 2.57891 12.864 2.49686C12.9511 2.41482 13 2.30354 13 2.1875V1.3125C13 1.19647 12.9511 1.08519 12.864 1.00315C12.7769 0.921098 12.6588 0.875004 12.5357 0.875004Z" fill="#01BDBD"/>
</svg>
